<svg width="2012" height="1350" viewBox="0 0 2012 1350" fill="none" xmlns="http://www.w3.org/2000/svg">
<mask id="mask0_217_60" style="mask-type:alpha" maskUnits="userSpaceOnUse" x="0" y="0" width="2012" height="1350">
<rect width="2012" height="1350" rx="50" fill="#2D76F9"/>
</mask>
<g mask="url(#mask0_217_60)">
<circle cx="1514" cy="432" r="342" stroke="#2170FF" stroke-width="150"/>
<circle cx="480" cy="924" r="342" stroke="#2170FF" stroke-width="150"/>
<path d="M598.99 365.982C599.462 365.246 600.538 365.246 601.01 365.982L603.681 370.147C603.853 370.415 604.125 370.604 604.436 370.672L609.361 371.742C610.268 371.939 610.617 373.048 609.987 373.729L606.754 377.223C606.523 377.473 606.409 377.81 606.44 378.149L606.873 382.829C606.956 383.721 606.067 384.385 605.235 384.054L600.443 382.149C600.159 382.036 599.841 382.036 599.557 382.149L594.765 384.054C593.933 384.385 593.044 383.721 593.127 382.829L593.56 378.149C593.591 377.81 593.477 377.473 593.246 377.223L590.013 373.729C589.383 373.048 589.732 371.939 590.639 371.742L595.564 370.672C595.875 370.604 596.147 370.415 596.319 370.147L598.99 365.982Z" stroke="white" stroke-width="1.5"/>
<path d="M1519.14 1285.04C1518.48 1285.63 1517.43 1285.37 1517.18 1284.54L1514.87 1277.01C1514.77 1276.7 1514.56 1276.45 1514.28 1276.31L1507 1272.67C1506.17 1272.26 1506.14 1271.12 1506.93 1270.61L1513.68 1266.34C1513.97 1266.15 1514.17 1265.86 1514.23 1265.53L1515.67 1257.94C1515.83 1257.06 1516.88 1256.64 1517.59 1257.17L1524.2 1262C1524.45 1262.18 1524.76 1262.26 1525.07 1262.22L1533.37 1261.13C1534.26 1261.01 1534.95 1261.87 1534.62 1262.71L1531.82 1269.95C1531.7 1270.26 1531.71 1270.61 1531.87 1270.91L1535.43 1277.78C1535.85 1278.59 1535.21 1279.56 1534.28 1279.53L1526.03 1279.27C1525.71 1279.26 1525.4 1279.37 1525.16 1279.59L1519.14 1285.04Z" stroke="white" stroke-width="1.5"/>
<path d="M584.335 995.826C585.275 995.842 585.877 996.819 585.421 997.592L583.914 1000.15C583.751 1000.42 583.716 1000.75 583.816 1001.06L584.742 1003.91C585.015 1004.75 584.274 1005.54 583.372 1005.38L580.195 1004.8C579.875 1004.74 579.547 1004.81 579.283 1004.98L576.663 1006.7C575.906 1007.2 574.845 1006.73 574.729 1005.84L574.349 1002.96C574.307 1002.63 574.124 1002.34 573.845 1002.14L571.373 1000.39C570.616 999.853 570.713 998.756 571.55 998.39L574.446 997.12C574.738 996.992 574.961 996.758 575.068 996.468L576.124 993.598C576.423 992.783 577.526 992.578 578.164 993.219L580.331 995.396C580.565 995.631 580.887 995.767 581.222 995.773L584.335 995.826Z" stroke="white" stroke-width="1.5"/>
<path d="M739.386 1045.76C740.296 1046 740.616 1047.12 739.959 1047.76L735.831 1051.78C735.598 1052.01 735.472 1052.32 735.484 1052.65L735.691 1058.32C735.723 1059.2 734.815 1059.78 733.999 1059.41L728.461 1056.88C728.173 1056.75 727.848 1056.73 727.553 1056.83L721.828 1058.78C720.966 1059.08 720.075 1058.35 720.208 1057.45L721.027 1051.95C721.077 1051.62 720.979 1051.28 720.758 1051.01L717.117 1046.63C716.527 1045.92 716.909 1044.87 717.812 1044.72L723.81 1043.72C724.118 1043.67 724.391 1043.5 724.57 1043.25L728.017 1038.47C728.526 1037.76 729.623 1037.84 730.063 1038.61L732.909 1043.63C733.073 1043.92 733.348 1044.13 733.671 1044.22L739.386 1045.76Z" stroke="white" stroke-width="1.5"/>
<path d="M1365.95 1031.61C1365.48 1032.35 1364.4 1032.35 1363.93 1031.61L1359.61 1024.88C1359.44 1024.61 1359.17 1024.42 1358.86 1024.36L1350.82 1022.61C1349.92 1022.41 1349.57 1021.3 1350.2 1020.62L1355.52 1014.87C1355.75 1014.62 1355.87 1014.28 1355.84 1013.94L1355.13 1006.28C1355.05 1005.39 1355.93 1004.72 1356.77 1005.05L1364.5 1008.12C1364.78 1008.24 1365.1 1008.24 1365.38 1008.12L1373.11 1005.05C1373.95 1004.72 1374.84 1005.39 1374.75 1006.28L1374.04 1013.94C1374.01 1014.28 1374.13 1014.62 1374.36 1014.87L1379.68 1020.62C1380.31 1021.3 1379.96 1022.41 1379.06 1022.61L1371.02 1024.36C1370.71 1024.42 1370.44 1024.61 1370.27 1024.88L1365.95 1031.61Z" stroke="white" stroke-width="1.5"/>
<path d="M1320.33 1285.89C1319.67 1286.49 1318.62 1286.22 1318.37 1285.39L1316.68 1279.87C1316.58 1279.57 1316.37 1279.32 1316.09 1279.18L1310.78 1276.52C1309.96 1276.11 1309.92 1274.97 1310.72 1274.46L1315.61 1271.36C1315.9 1271.18 1316.1 1270.88 1316.17 1270.55L1317.21 1265.03C1317.37 1264.15 1318.42 1263.73 1319.14 1264.25L1323.98 1267.8C1324.23 1267.98 1324.54 1268.06 1324.85 1268.02L1330.93 1267.22C1331.83 1267.1 1332.51 1267.96 1332.19 1268.8L1330.15 1274.07C1330.03 1274.38 1330.05 1274.73 1330.2 1275.03L1332.78 1280.01C1333.2 1280.82 1332.56 1281.8 1331.63 1281.77L1325.62 1281.57C1325.3 1281.56 1324.98 1281.68 1324.74 1281.9L1320.33 1285.89Z" stroke="white" stroke-width="1.5"/>
<path d="M462.481 988.179C461.576 988.391 460.756 987.622 460.982 986.772L462.207 982.147C462.288 981.842 462.233 981.519 462.056 981.252L459.367 977.208C458.873 976.465 459.399 975.496 460.33 975.435L465.397 975.099C465.731 975.077 466.042 974.928 466.257 974.688L469.525 971.038C470.125 970.368 471.27 970.538 471.62 971.35L473.526 975.768C473.651 976.059 473.898 976.291 474.208 976.409L478.917 978.197C479.782 978.526 479.963 979.6 479.249 980.163L475.36 983.229C475.103 983.431 474.945 983.723 474.921 984.036L474.563 988.791C474.498 989.664 473.465 990.158 472.674 989.694L468.364 987.171C468.08 987.005 467.736 986.954 467.411 987.03L462.481 988.179Z" stroke="white" stroke-width="1.5"/>
<path d="M591.845 1106.53C590.939 1106.74 590.12 1105.97 590.345 1105.12L591.108 1102.24C591.189 1101.93 591.135 1101.61 590.957 1101.34L589.282 1098.82C588.789 1098.08 589.315 1097.11 590.245 1097.05L593.402 1096.84C593.736 1096.82 594.046 1096.67 594.262 1096.43L596.298 1094.16C596.898 1093.49 598.042 1093.66 598.392 1094.47L599.58 1097.22C599.706 1097.51 599.952 1097.74 600.263 1097.86L603.196 1098.97C604.061 1099.3 604.242 1100.38 603.528 1100.94L601.105 1102.85C600.848 1103.05 600.69 1103.34 600.667 1103.66L600.444 1106.62C600.378 1107.49 599.346 1107.99 598.554 1107.52L595.869 1105.95C595.585 1105.78 595.241 1105.73 594.916 1105.81L591.845 1106.53Z" stroke="white" stroke-width="1.5"/>
<path d="M715.103 1279.49C714.162 1279.47 713.561 1278.49 714.017 1277.72L717.996 1270.97C718.159 1270.7 718.194 1270.37 718.094 1270.06L715.678 1262.63C715.406 1261.79 716.147 1260.99 717.049 1261.16L725.239 1262.65C725.559 1262.7 725.888 1262.64 726.152 1262.47L732.957 1258C733.714 1257.5 734.774 1257.97 734.891 1258.86L735.896 1266.5C735.939 1266.82 736.122 1267.12 736.4 1267.32L742.949 1271.95C743.706 1272.49 743.609 1273.59 742.772 1273.95L735.249 1277.25C734.957 1277.38 734.734 1277.61 734.627 1277.9L731.906 1285.3C731.606 1286.12 730.503 1286.32 729.865 1285.68L724.213 1280C723.979 1279.77 723.657 1279.63 723.321 1279.63L715.103 1279.49Z" stroke="white" stroke-width="1.5"/>
<path d="M690.916 970.659C689.975 970.643 689.373 969.666 689.829 968.893L692.727 963.979C692.89 963.703 692.925 963.373 692.825 963.066L691.061 957.638C690.788 956.8 691.529 956.006 692.431 956.169L698.428 957.259C698.748 957.317 699.076 957.253 699.341 957.08L704.315 953.816C705.071 953.32 706.132 953.79 706.248 954.673L706.98 960.232C707.023 960.557 707.206 960.854 707.484 961.051L712.249 964.426C713.006 964.962 712.909 966.059 712.073 966.425L706.574 968.836C706.282 968.964 706.058 969.198 705.952 969.488L703.959 974.906C703.66 975.721 702.556 975.926 701.919 975.285L697.792 971.138C697.558 970.903 697.235 970.766 696.9 970.761L690.916 970.659Z" stroke="white" stroke-width="1.5"/>
<circle cx="1617" cy="918" r="164.5" stroke="#4587FF" stroke-width="75"/>
<circle cx="377" cy="418" r="164.5" stroke="#4587FF" stroke-width="75"/>
<path d="M606.838 778.985L605.738 777.965L606.838 778.985ZM588.649 760.797L589.669 761.897L588.649 760.797ZM615.474 757.027L616.961 757.222L615.474 757.027ZM610.608 752.161L610.802 753.648L610.802 753.648L610.608 752.161ZM576.462 778.578L577.809 779.239L577.809 779.239L576.462 778.578ZM589.057 791.173L588.396 789.826L588.396 789.826L589.057 791.173ZM580.616 772.468C580.03 771.882 579.08 771.882 578.494 772.468C577.909 773.054 577.909 774.004 578.494 774.589L580.616 772.468ZM593.045 789.14C593.631 789.726 594.581 789.726 595.167 789.14C595.753 788.554 595.753 787.605 595.167 787.019L593.045 789.14ZM576.069 793.687C576.654 793.102 576.654 792.152 576.069 791.566C575.483 790.98 574.533 790.98 573.947 791.566L576.069 793.687ZM566.672 798.842C566.086 799.427 566.086 800.377 566.672 800.963C567.258 801.549 568.207 801.549 568.793 800.963L566.672 798.842ZM570.612 788.231C571.198 787.645 571.198 786.695 570.612 786.11C570.026 785.524 569.077 785.524 568.491 786.11L570.612 788.231ZM564.853 789.747C564.267 790.333 564.267 791.283 564.853 791.869C565.439 792.454 566.389 792.454 566.974 791.869L564.853 789.747ZM581.525 799.144C582.111 798.558 582.111 797.608 581.525 797.023C580.939 796.437 579.99 796.437 579.404 797.023L581.525 799.144ZM575.766 800.66C575.18 801.246 575.18 802.196 575.766 802.782C576.352 803.368 577.302 803.368 577.888 802.782L575.766 800.66ZM587.012 800.266L588.497 800.054L588.497 800.054L587.012 800.266ZM600.29 791.354L601.775 791.141L601.775 791.141L600.29 791.354ZM567.369 780.622L567.581 779.137L567.581 779.137L567.369 780.622ZM576.281 767.345L576.069 768.83L576.069 768.83L576.281 767.345ZM584.533 789.118L578.517 783.102L576.396 785.223L582.412 791.239L584.533 789.118ZM605.738 777.965C600.809 783.28 592.837 787.649 588.396 789.826L589.717 792.52C594.189 790.328 602.603 785.758 607.938 780.005L605.738 777.965ZM577.809 779.239C579.986 774.798 584.355 766.826 589.669 761.897L587.629 759.697C581.877 765.032 577.307 773.446 575.115 777.918L577.809 779.239ZM613.987 756.833C613.204 762.819 611.116 772.167 605.738 777.965L607.938 780.005C614.002 773.467 616.169 763.279 616.961 757.222L613.987 756.833ZM589.669 761.897C595.467 756.519 604.816 754.431 610.802 753.648L610.413 750.673C604.355 751.466 594.167 753.633 587.629 759.697L589.669 761.897ZM616.961 757.222C617.468 753.35 614.285 750.167 610.413 750.673L610.802 753.648C612.72 753.397 614.238 754.915 613.987 756.833L616.961 757.222ZM578.517 783.102C577.461 782.046 577.187 780.507 577.809 779.239L575.115 777.918C573.893 780.409 574.491 783.318 576.396 785.223L578.517 783.102ZM582.412 791.239C584.317 793.144 587.225 793.741 589.717 792.52L588.396 789.826C587.128 790.448 585.589 790.173 584.533 789.118L582.412 791.239ZM578.494 774.589L593.045 789.14L595.167 787.019L580.616 772.468L578.494 774.589ZM573.947 791.566L566.672 798.842L568.793 800.963L576.069 793.687L573.947 791.566ZM568.491 786.11L564.853 789.747L566.974 791.869L570.612 788.231L568.491 786.11ZM579.404 797.023L575.766 800.66L577.888 802.782L581.525 799.144L579.404 797.023ZM593.955 764.283C591.36 766.878 591.36 771.085 593.955 773.68L596.076 771.559C594.653 770.135 594.653 767.828 596.076 766.404L593.955 764.283ZM593.955 773.68C596.55 776.275 600.757 776.275 603.352 773.68L601.23 771.559C599.807 772.982 597.499 772.982 596.076 771.559L593.955 773.68ZM603.352 773.68C605.946 771.085 605.946 766.878 603.352 764.283L601.23 766.404C602.654 767.828 602.654 770.135 601.23 771.559L603.352 773.68ZM603.352 764.283C600.757 761.688 596.55 761.688 593.955 764.283L596.076 766.404C597.499 764.981 599.807 764.981 601.23 766.404L603.352 764.283ZM598.502 792.476L590.317 800.66L592.438 802.782L600.623 794.597L598.502 792.476ZM588.497 800.054L587.406 792.415L584.436 792.839L585.528 800.478L588.497 800.054ZM598.078 786.473L598.805 791.566L601.775 791.141L601.048 786.049L598.078 786.473ZM590.317 800.66C589.692 801.285 588.622 800.929 588.497 800.054L585.528 800.478C586.002 803.8 590.066 805.155 592.438 802.782L590.317 800.66ZM600.623 794.597C601.53 793.691 601.956 792.41 601.775 791.141L598.805 791.566C598.853 791.9 598.741 792.237 598.502 792.476L600.623 794.597ZM573.038 767.011L564.853 775.196L566.974 777.318L575.159 769.133L573.038 767.011ZM567.157 782.107L574.796 783.199L575.22 780.229L567.581 779.137L567.157 782.107ZM581.586 766.587L576.493 765.86L576.069 768.83L581.162 769.557L581.586 766.587ZM564.853 775.196C562.48 777.569 563.835 781.633 567.157 782.107L567.581 779.137C566.706 779.012 566.349 777.942 566.974 777.318L564.853 775.196ZM575.159 769.133C575.398 768.894 575.735 768.782 576.069 768.83L576.493 765.86C575.224 765.678 573.944 766.105 573.038 767.011L575.159 769.133Z" fill="white"/>
<path d="M539.99 400.701C540.462 399.965 541.538 399.965 542.01 400.701L543.694 403.326C543.866 403.595 544.137 403.784 544.449 403.851L547.507 404.516C548.415 404.713 548.764 405.822 548.133 406.503L546.157 408.64C545.925 408.89 545.811 409.227 545.843 409.566L546.11 412.455C546.192 413.347 545.304 414.012 544.472 413.681L541.443 412.477C541.159 412.364 540.841 412.364 540.557 412.477L537.528 413.681C536.696 414.012 535.808 413.347 535.89 412.455L536.157 409.566C536.189 409.227 536.075 408.89 535.843 408.64L533.867 406.503C533.236 405.822 533.585 404.713 534.493 404.516L537.551 403.851C537.863 403.784 538.134 403.595 538.306 403.326L539.99 400.701Z" stroke="white" stroke-width="1.5"/>
<path d="M496.384 604.288C497.044 603.69 498.094 603.953 498.348 604.781L499.775 609.441C499.868 609.742 500.079 609.991 500.363 610.133L504.828 612.364C505.65 612.775 505.685 613.921 504.892 614.424L500.789 617.025C500.498 617.209 500.297 617.503 500.235 617.835L499.36 622.47C499.194 623.349 498.148 623.77 497.432 623.246L493.342 620.252C493.095 620.071 492.785 619.993 492.475 620.034L487.337 620.708C486.438 620.826 485.757 619.97 486.081 619.131L487.794 614.707C487.916 614.39 487.899 614.041 487.745 613.746L485.578 609.568C485.159 608.76 485.8 607.784 486.731 607.814L491.786 607.977C492.108 607.987 492.424 607.871 492.664 607.653L496.384 604.288Z" stroke="white" stroke-width="1.5"/>
<path d="M472.801 386.71C473.462 386.112 474.512 386.376 474.765 387.204L477.075 394.742C477.167 395.043 477.379 395.293 477.663 395.434L484.944 399.074C485.766 399.484 485.802 400.63 485.008 401.134L478.261 405.411C477.97 405.595 477.769 405.889 477.706 406.22L476.275 413.805C476.11 414.684 475.063 415.105 474.348 414.581L467.741 409.744C467.494 409.564 467.184 409.486 466.874 409.526L458.575 410.615C457.676 410.733 456.995 409.878 457.319 409.039L460.121 401.799C460.244 401.482 460.226 401.133 460.073 400.838L456.508 393.968C456.089 393.16 456.73 392.184 457.661 392.214L465.907 392.479C466.228 392.489 466.544 392.372 466.784 392.155L472.801 386.71Z" stroke="white" stroke-width="1.5"/>
<path d="M1340.11 643.64C1339.17 643.624 1338.56 642.647 1339.02 641.875L1341.45 637.747C1341.62 637.471 1341.65 637.141 1341.55 636.833L1340.07 632.265C1339.8 631.427 1340.54 630.633 1341.44 630.797L1346.49 631.716C1346.82 631.774 1347.14 631.709 1347.41 631.536L1351.6 628.787C1352.35 628.291 1353.41 628.761 1353.53 629.644L1354.15 634.312C1354.19 634.637 1354.37 634.934 1354.65 635.131L1358.65 637.964C1359.41 638.5 1359.31 639.597 1358.47 639.964L1353.84 641.994C1353.55 642.122 1353.33 642.356 1353.22 642.646L1351.54 647.215C1351.24 648.029 1350.14 648.234 1349.5 647.594L1346.03 644.103C1345.79 643.868 1345.47 643.732 1345.13 643.726L1340.11 643.64Z" stroke="white" stroke-width="1.5"/>
<path d="M1407.61 675.922C1406.67 675.906 1406.06 674.928 1406.52 674.156L1408.03 671.6C1408.19 671.325 1408.23 670.995 1408.13 670.687L1407.2 667.837C1406.93 666.999 1407.67 666.205 1408.57 666.369L1411.75 666.946C1412.07 667.004 1412.39 666.94 1412.66 666.767L1415.28 665.048C1416.04 664.551 1417.1 665.021 1417.21 665.904L1417.59 668.789C1417.63 669.114 1417.82 669.411 1418.1 669.608L1420.57 671.359C1421.33 671.895 1421.23 672.992 1420.39 673.358L1417.5 674.628C1417.2 674.756 1416.98 674.99 1416.87 675.28L1415.82 678.15C1415.52 678.964 1414.42 679.17 1413.78 678.529L1411.61 676.352C1411.38 676.117 1411.05 675.98 1410.72 675.975L1407.61 675.922Z" stroke="white" stroke-width="1.5"/>
<path d="M1359.46 766.924C1358.55 766.678 1358.23 765.558 1358.89 764.918L1364.57 759.393C1364.8 759.166 1364.93 758.852 1364.91 758.525L1364.63 750.752C1364.6 749.876 1365.51 749.292 1366.32 749.665L1373.87 753.113C1374.16 753.244 1374.48 753.262 1374.78 753.161L1382.6 750.495C1383.46 750.201 1384.36 750.933 1384.22 751.825L1383.09 759.402C1383.04 759.736 1383.14 760.079 1383.36 760.345L1388.38 766.376C1388.97 767.087 1388.59 768.139 1387.68 768.289L1379.49 769.651C1379.18 769.702 1378.91 769.87 1378.73 770.119L1374.03 776.645C1373.52 777.351 1372.42 777.272 1371.98 776.498L1368.09 769.634C1367.92 769.345 1367.65 769.132 1367.32 769.045L1359.46 766.924Z" stroke="white" stroke-width="1.5"/>
<path d="M1252.56 625.99C1251.65 625.745 1251.33 624.625 1251.98 623.985L1256.11 619.968C1256.34 619.742 1256.47 619.428 1256.46 619.101L1256.25 613.424C1256.22 612.547 1257.13 611.963 1257.94 612.336L1263.48 614.866C1263.77 614.998 1264.09 615.015 1264.39 614.915L1270.11 612.964C1270.98 612.67 1271.87 613.402 1271.73 614.294L1270.91 619.794C1270.86 620.128 1270.96 620.471 1271.18 620.737L1274.82 625.116C1275.41 625.826 1275.03 626.879 1274.13 627.029L1268.13 628.025C1267.82 628.076 1267.55 628.244 1267.37 628.493L1263.92 633.282C1263.42 633.988 1262.32 633.909 1261.88 633.135L1259.03 628.121C1258.87 627.832 1258.59 627.619 1258.27 627.532L1252.56 625.99Z" stroke="white" stroke-width="1.5"/>
<path d="M625.99 640.137C626.463 639.4 627.538 639.4 628.011 640.137L632.327 646.867C632.5 647.136 632.771 647.325 633.083 647.392L641.116 649.138C642.024 649.335 642.373 650.444 641.742 651.126L636.418 656.881C636.187 657.131 636.072 657.468 636.104 657.807L636.813 665.47C636.895 666.362 636.007 667.027 635.174 666.696L627.444 663.623C627.159 663.51 626.842 663.51 626.557 663.623L618.827 666.696C617.994 667.027 617.106 666.362 617.188 665.47L617.897 657.807C617.929 657.468 617.814 657.131 617.583 656.881L612.259 651.126C611.628 650.444 611.977 649.335 612.885 649.138L620.918 647.392C621.23 647.325 621.501 647.136 621.674 646.867L625.99 640.137Z" stroke="white" stroke-width="1.5"/>
<path d="M671.609 385.861C672.27 385.263 673.319 385.527 673.573 386.355L675.265 391.878C675.357 392.179 675.569 392.428 675.853 392.57L681.163 395.224C681.985 395.634 682.02 396.781 681.227 397.284L676.33 400.387C676.04 400.571 675.839 400.865 675.776 401.197L674.735 406.717C674.569 407.596 673.522 408.017 672.807 407.493L667.961 403.946C667.715 403.766 667.405 403.688 667.095 403.728L661.009 404.527C660.11 404.645 659.428 403.789 659.753 402.95L661.792 397.681C661.915 397.364 661.897 397.015 661.744 396.72L659.157 391.735C658.738 390.927 659.379 389.951 660.31 389.981L666.322 390.174C666.644 390.184 666.96 390.068 667.2 389.85L671.609 385.861Z" stroke="white" stroke-width="1.5"/>
<path d="M1529.46 683.568C1530.37 683.357 1531.18 684.126 1530.96 684.975L1529.73 689.601C1529.65 689.906 1529.71 690.229 1529.89 690.496L1532.57 694.54C1533.07 695.282 1532.54 696.251 1531.61 696.313L1526.54 696.649C1526.21 696.671 1525.9 696.819 1525.68 697.06L1522.42 700.709C1521.82 701.379 1520.67 701.209 1520.32 700.398L1518.42 695.98C1518.29 695.688 1518.04 695.457 1517.73 695.339L1513.02 693.55C1512.16 693.222 1511.98 692.148 1512.69 691.585L1516.58 688.519C1516.84 688.316 1517 688.025 1517.02 687.711L1517.38 682.957C1517.44 682.083 1518.48 681.59 1519.27 682.053L1523.58 684.576C1523.86 684.743 1524.21 684.794 1524.53 684.718L1529.46 683.568Z" stroke="white" stroke-width="1.5"/>
<path d="M1400.1 565.222C1401 565.011 1401.82 565.779 1401.6 566.629L1400.83 569.511C1400.75 569.816 1400.81 570.139 1400.98 570.406L1402.66 572.925C1403.15 573.667 1402.63 574.636 1401.7 574.698L1398.54 574.907C1398.2 574.929 1397.89 575.078 1397.68 575.318L1395.64 577.592C1395.04 578.262 1393.9 578.092 1393.55 577.281L1392.36 574.528C1392.24 574.237 1391.99 574.005 1391.68 573.887L1388.74 572.773C1387.88 572.445 1387.7 571.371 1388.41 570.808L1390.84 568.897C1391.09 568.695 1391.25 568.404 1391.27 568.09L1391.5 565.128C1391.56 564.255 1392.6 563.761 1393.39 564.225L1396.07 565.796C1396.36 565.963 1396.7 566.014 1397.03 565.938L1400.1 565.222Z" stroke="white" stroke-width="1.5"/>
<path d="M1276.84 392.261C1277.78 392.277 1278.38 393.255 1277.92 394.027L1273.94 400.776C1273.78 401.051 1273.75 401.381 1273.85 401.689L1276.26 409.122C1276.53 409.96 1275.79 410.754 1274.89 410.59L1266.7 409.102C1266.38 409.044 1266.05 409.108 1265.79 409.282L1258.98 413.746C1258.23 414.243 1257.17 413.773 1257.05 412.89L1256.04 405.249C1256 404.925 1255.82 404.628 1255.54 404.43L1248.99 399.793C1248.24 399.257 1248.33 398.16 1249.17 397.793L1256.69 394.496C1256.98 394.368 1257.21 394.133 1257.31 393.844L1260.04 386.444C1260.33 385.629 1261.44 385.424 1262.08 386.065L1267.73 391.744C1267.96 391.979 1268.28 392.116 1268.62 392.121L1276.84 392.261Z" stroke="white" stroke-width="1.5"/>
<path d="M1301.03 701.089C1301.97 701.105 1302.57 702.082 1302.11 702.855L1299.21 707.769C1299.05 708.044 1299.02 708.374 1299.12 708.682L1300.88 714.11C1301.15 714.948 1300.41 715.742 1299.51 715.578L1293.51 714.488C1293.19 714.43 1292.86 714.495 1292.6 714.668L1287.63 717.931C1286.87 718.428 1285.81 717.958 1285.69 717.075L1284.96 711.515C1284.92 711.19 1284.74 710.893 1284.46 710.696L1279.69 707.322C1278.94 706.786 1279.03 705.689 1279.87 705.322L1285.37 702.912C1285.66 702.784 1285.88 702.549 1285.99 702.26L1287.98 696.842C1288.28 696.027 1289.39 695.822 1290.02 696.462L1294.15 700.61C1294.38 700.845 1294.71 700.981 1295.04 700.987L1301.03 701.089Z" stroke="white" stroke-width="1.5"/>
</g>
</svg>
